# xmcd
#
# Track frame offsets:
#	150
#	17319
#	32973
#	53224
#	84149
#	104650
#	131245
#	156351
#	174016
#
# Disc length: 2618 seconds
#
# Revision: 0
# Processed by: cddbd v1.5.1PL0 Copyright (c) Steve Scherf et al.
# Submitted via: dBpowerAMP V4.0
#
DISCID=680a3809
DTITLE=Salamandra Blues - Ventos de outono
DYEAR=1900
DGENRE=Blues
TTITLE0=Ventos de outono
TTITLE1=Pedras e espinhos
TTITLE2=Vestigios da noite
TTITLE3=Caminhos sinuosos
TTITLE4=O que aconteceu?
TTITLE5=Blues da madrugada
TTITLE6=Instinto
TTITLE7=O que restou de nós
TTITLE8=Bluesman
EXTD=
EXTT0=
EXTT1=
EXTT2=
EXTT3=
EXTT4=
EXTT5=
EXTT6=
EXTT7=
EXTT8=
PLAYORDER=
